<mxfile host="app.diagrams.net" agent="Mozilla/5.0 (Windows NT 10.0; Win64; x64) AppleWebKit/537.36 (KHTML, like Gecko) Chrome/131.0.0.0 Safari/537.36" version="25.0.1">
  <diagram name="Page-1" id="12e1b939-464a-85fe-373e-61e167be1490">
    <mxGraphModel dx="4780" dy="2427" grid="1" gridSize="10" guides="1" tooltips="1" connect="1" arrows="1" fold="1" page="1" pageScale="1.5" pageWidth="1169" pageHeight="826" background="none" math="0" shadow="0">
      <root>
        <mxCell id="0" />
        <mxCell id="1" parent="0" />
        <mxCell id="X-kGlWM25ZlA-cKQ16NR-5" value="" style="edgeStyle=orthogonalEdgeStyle;rounded=0;orthogonalLoop=1;jettySize=auto;html=1;exitX=0.458;exitY=1;exitDx=0;exitDy=0;exitPerimeter=0;" parent="1" source="X-kGlWM25ZlA-cKQ16NR-1" edge="1">
          <mxGeometry relative="1" as="geometry">
            <mxPoint x="1430.0000000000005" y="280" as="sourcePoint" />
            <mxPoint x="640" y="420" as="targetPoint" />
            <Array as="points">
              <mxPoint x="1750" y="287" />
              <mxPoint x="1750" y="287" />
              <mxPoint x="1750" y="300" />
              <mxPoint x="640" y="300" />
            </Array>
          </mxGeometry>
        </mxCell>
        <mxCell id="X-kGlWM25ZlA-cKQ16NR-1" value="&lt;font style=&quot;font-size: 42px;&quot;&gt;Микросервисы&lt;/font&gt;" style="text;html=1;align=center;verticalAlign=middle;whiteSpace=wrap;rounded=0;fillColor=#f5f5f5;fontColor=#333333;strokeColor=#666666;" parent="1" vertex="1">
          <mxGeometry x="1500" y="40" width="480" height="240" as="geometry" />
        </mxCell>
        <mxCell id="X-kGlWM25ZlA-cKQ16NR-4" value="&lt;font style=&quot;font-size: 23px;&quot;&gt;Сервис транзакций&amp;nbsp;&lt;/font&gt;&lt;div&gt;&lt;font style=&quot;font-size: 20px;&quot;&gt;C#&lt;/font&gt;&lt;/div&gt;&lt;div&gt;Базовый функционал транзакций:&lt;br&gt;1) Операции с кошельком (переводы между счетами)&lt;/div&gt;&lt;div&gt;2) Покупка/Продажа&lt;/div&gt;&lt;div&gt;3) Создание ордеров и их настройка&lt;/div&gt;&lt;div&gt;4)&amp;nbsp; Управление книгой ордеров&lt;/div&gt;&lt;div&gt;5) Через Kafka очередь&amp;nbsp; ордеров&lt;/div&gt;" style="whiteSpace=wrap;html=1;" parent="1" vertex="1">
          <mxGeometry x="510" y="420" width="450" height="320" as="geometry" />
        </mxCell>
        <mxCell id="X-kGlWM25ZlA-cKQ16NR-10" value="&lt;font style=&quot;font-size: 23px;&quot;&gt;Сервис управление кошельками&lt;/font&gt;&lt;div&gt;&lt;span style=&quot;font-size: 20px;&quot;&gt;Python&lt;/span&gt;&lt;/div&gt;&lt;div&gt;Функционал:&lt;/div&gt;&lt;div&gt;1) Пополнение и выводы&lt;br&gt;2) Отслеживание пополнений&amp;nbsp;&lt;/div&gt;&lt;div&gt;3) Подтверждение пополнений&lt;/div&gt;&lt;div&gt;4) Создание под-кошельков от основного&lt;/div&gt;&lt;div&gt;&lt;br&gt;&lt;/div&gt;" style="whiteSpace=wrap;html=1;" parent="1" vertex="1">
          <mxGeometry x="1000" y="420" width="450" height="320" as="geometry" />
        </mxCell>
        <mxCell id="X-kGlWM25ZlA-cKQ16NR-11" value="&lt;div&gt;&lt;span style=&quot;font-size: 23px;&quot;&gt;Микросервис для перенаправления запросов&lt;/span&gt;&lt;/div&gt;&lt;div&gt;&lt;span style=&quot;font-size: 23px;&quot;&gt;Node js&lt;/span&gt;&lt;/div&gt;&lt;div&gt;&lt;span style=&quot;font-size: 23px;&quot;&gt;&lt;br&gt;&lt;/span&gt;&lt;/div&gt;&lt;div&gt;&lt;br&gt;&lt;/div&gt;&lt;div&gt;Получает запросы и перенаправляет на нужный микросервис&amp;nbsp;&lt;/div&gt;" style="whiteSpace=wrap;html=1;" parent="1" vertex="1">
          <mxGeometry x="1490" y="420" width="450" height="320" as="geometry" />
        </mxCell>
        <mxCell id="X-kGlWM25ZlA-cKQ16NR-12" value="&lt;div&gt;&lt;span style=&quot;font-size: 23px;&quot;&gt;Микросервис для управления данными пользователя&lt;/span&gt;&lt;/div&gt;&lt;div&gt;&lt;span style=&quot;font-size: 23px;&quot;&gt;Node js&lt;/span&gt;&lt;/div&gt;&lt;div&gt;Функционал:&lt;/div&gt;&lt;div&gt;1) Регистрация/вход&lt;/div&gt;&lt;div&gt;2) Работа с пользовательскими данными&lt;/div&gt;" style="whiteSpace=wrap;html=1;" parent="1" vertex="1">
          <mxGeometry x="2020" y="420" width="450" height="320" as="geometry" />
        </mxCell>
        <mxCell id="X-kGlWM25ZlA-cKQ16NR-13" value="&lt;div&gt;&lt;span style=&quot;font-size: 23px;&quot;&gt;Микросервис для P2P и Акций&lt;/span&gt;&lt;/div&gt;&lt;div&gt;&lt;span style=&quot;font-size: 23px;&quot;&gt;Java Spring&lt;/span&gt;&lt;/div&gt;&lt;div&gt;Функционал:&lt;/div&gt;&lt;div&gt;1) Сервис p2p&lt;br&gt;&lt;/div&gt;&lt;div&gt;2) Добавление и отправка условных роликов для обучения&lt;/div&gt;" style="whiteSpace=wrap;html=1;" parent="1" vertex="1">
          <mxGeometry x="2530" y="420" width="450" height="320" as="geometry" />
        </mxCell>
        <mxCell id="X-kGlWM25ZlA-cKQ16NR-14" value="" style="endArrow=classic;html=1;rounded=0;" parent="1" target="X-kGlWM25ZlA-cKQ16NR-10" edge="1">
          <mxGeometry width="50" height="50" relative="1" as="geometry">
            <mxPoint x="1750" y="300" as="sourcePoint" />
            <mxPoint x="1680" y="520" as="targetPoint" />
            <Array as="points">
              <mxPoint x="1220" y="300" />
            </Array>
          </mxGeometry>
        </mxCell>
        <mxCell id="X-kGlWM25ZlA-cKQ16NR-15" value="" style="endArrow=classic;html=1;rounded=0;entryX=0.572;entryY=-0.004;entryDx=0;entryDy=0;entryPerimeter=0;" parent="1" target="X-kGlWM25ZlA-cKQ16NR-11" edge="1">
          <mxGeometry width="50" height="50" relative="1" as="geometry">
            <mxPoint x="1750" y="300" as="sourcePoint" />
            <mxPoint x="1680" y="520" as="targetPoint" />
          </mxGeometry>
        </mxCell>
        <mxCell id="X-kGlWM25ZlA-cKQ16NR-16" value="" style="endArrow=classic;html=1;rounded=0;entryX=0.5;entryY=0;entryDx=0;entryDy=0;" parent="1" target="X-kGlWM25ZlA-cKQ16NR-12" edge="1">
          <mxGeometry width="50" height="50" relative="1" as="geometry">
            <mxPoint x="1750" y="300" as="sourcePoint" />
            <mxPoint x="2140" y="400" as="targetPoint" />
            <Array as="points">
              <mxPoint x="2245" y="300" />
            </Array>
          </mxGeometry>
        </mxCell>
        <mxCell id="X-kGlWM25ZlA-cKQ16NR-17" value="" style="endArrow=classic;html=1;rounded=0;entryX=0.5;entryY=0;entryDx=0;entryDy=0;" parent="1" edge="1">
          <mxGeometry width="50" height="50" relative="1" as="geometry">
            <mxPoint x="2220" y="300" as="sourcePoint" />
            <mxPoint x="2715" y="420" as="targetPoint" />
            <Array as="points">
              <mxPoint x="2715" y="300" />
            </Array>
          </mxGeometry>
        </mxCell>
      </root>
    </mxGraphModel>
  </diagram>
</mxfile>
